<svg width="159" height="36" viewBox="0 0 159 36" fill="none" xmlns="http://www.w3.org/2000/svg">
<path d="M24.8555 34.8047C23.2441 35.0977 21.0713 35.2441 18.3369 35.2441C15.6188 35.2441 13.1611 34.8698 10.9639 34.1211C8.78288 33.3724 6.90299 32.2656 5.32422 30.8008C1.9388 27.6595 0.246094 23.2812 0.246094 17.666C0.246094 14.0039 1.11686 10.8301 2.8584 8.14453C5.21842 4.51497 8.83984 2.20378 13.7227 1.21094C15.2201 0.917969 17.0023 0.771484 19.0693 0.771484C21.1527 0.771484 22.821 0.885417 24.0742 1.11328V5.77637C22.9349 5.41829 21.1689 5.23926 18.7764 5.23926C16.4001 5.23926 14.3818 5.53223 12.7217 6.11816C11.0615 6.7041 9.6862 7.54232 8.5957 8.63281C6.41471 10.765 5.32422 13.776 5.32422 17.666C5.32422 21.5885 6.39844 24.6973 8.54688 26.9922C10.8743 29.4661 14.2191 30.7031 18.5811 30.7031C21.1364 30.7031 23.2279 30.5078 24.8555 30.1172V34.8047ZM29.8604 18.0566C29.8604 15.4036 30.2591 13.0029 31.0566 10.8545C31.8542 8.70605 32.9609 6.875 34.377 5.36133C37.3555 2.20378 41.221 0.625 45.9736 0.625C50.7425 0.625 54.5999 2.20378 57.5459 5.36133C60.5407 8.56771 62.0381 12.7995 62.0381 18.0566C62.0381 23.3138 60.5407 27.5293 57.5459 30.7031C54.6162 33.8281 50.7588 35.3906 45.9736 35.3906C41.2048 35.3906 37.3392 33.8281 34.377 30.7031C31.3659 27.513 29.8604 23.2975 29.8604 18.0566ZM34.7432 18.0322C34.7432 21.7432 35.6465 24.8112 37.4531 27.2363C39.4876 29.9382 42.3278 31.2891 45.9736 31.2891C49.6195 31.2891 52.4515 29.9382 54.4697 27.2363C56.2601 24.8438 57.1553 21.792 57.1553 18.0811C57.1553 14.3376 56.2601 11.2533 54.4697 8.82812C52.4515 6.09375 49.6195 4.72656 45.9736 4.72656C42.3115 4.72656 39.4714 6.09375 37.4531 8.82812C35.6465 11.2533 34.7432 14.3213 34.7432 18.0322ZM68.2393 1.01562H71.3643L83.4736 14.9316L95.5342 1.01562H98.6592V35H93.7764V9.12109L92.3359 11.0742L83.4736 21.4014L74.6113 11.0986L73.1221 9.14551V35H68.2393V1.01562ZM105.959 1.01562H127.907V5.26367H110.842V15.2734H123.757V19.375H110.842V30.7031H127.907V35H105.959V1.01562ZM143.483 5.3125H133.254V1.01562H158.596V5.3125H148.366V35H143.483V5.3125Z" fill="url(#paint0_linear_575_2172)"/>
<defs>
<linearGradient id="paint0_linear_575_2172" x1="79.5" y1="-15" x2="79.5" y2="48" gradientUnits="userSpaceOnUse">
<stop offset="0.4" stop-color="white"/>
<stop offset="1" stop-color="#8DD463"/>
</linearGradient>
</defs>
</svg>
